<mxfile host="app.diagrams.net" modified="2022-12-03T01:09:16.617Z" agent="5.0 (Windows NT 10.0; Win64; x64) AppleWebKit/537.36 (KHTML, like Gecko) Chrome/107.0.0.0 Safari/537.36" etag="IHtK1xjg4i2U9Vbe0hKc" version="20.6.0" type="github" pages="2">
  <diagram id="WrF1fSrl6YOMWJNm9HCv" name="Page-1">
    <mxGraphModel dx="1422" dy="762" grid="1" gridSize="10" guides="1" tooltips="1" connect="1" arrows="1" fold="1" page="1" pageScale="1" pageWidth="850" pageHeight="3500" math="0" shadow="0">
      <root>
        <mxCell id="0" />
        <mxCell id="1" parent="0" />
        <mxCell id="w7m0Fat6c1bRsjCkgvyw-8" value="" style="rounded=0;orthogonalLoop=1;jettySize=auto;html=1;endArrow=none;endFill=0;sketch=0;sourcePerimeterSpacing=0;targetPerimeterSpacing=0;exitX=0.648;exitY=-0.001;exitDx=0;exitDy=0;exitPerimeter=0;" parent="1" source="w7m0Fat6c1bRsjCkgvyw-2" target="w7m0Fat6c1bRsjCkgvyw-10" edge="1">
          <mxGeometry relative="1" as="geometry">
            <mxPoint x="350" y="620" as="sourcePoint" />
          </mxGeometry>
        </mxCell>
        <mxCell id="w7m0Fat6c1bRsjCkgvyw-9" value="" style="rounded=0;orthogonalLoop=1;jettySize=auto;html=1;endArrow=halfCircle;endFill=0;entryX=0.5;entryY=0.5;endSize=6;strokeWidth=1;sketch=0;" parent="1" source="w7m0Fat6c1bRsjCkgvyw-1" target="w7m0Fat6c1bRsjCkgvyw-10" edge="1">
          <mxGeometry relative="1" as="geometry">
            <mxPoint x="140" y="250" as="sourcePoint" />
          </mxGeometry>
        </mxCell>
        <mxCell id="w7m0Fat6c1bRsjCkgvyw-10" value="Python MySQL Connector" style="ellipse;whiteSpace=wrap;html=1;align=center;aspect=fixed;resizable=0;points=[];outlineConnect=0;sketch=0;labelPosition=center;verticalLabelPosition=top;verticalAlign=bottom;" parent="1" vertex="1">
          <mxGeometry x="280" y="575" width="10" height="10" as="geometry" />
        </mxCell>
        <mxCell id="w7m0Fat6c1bRsjCkgvyw-12" value="" style="rounded=0;orthogonalLoop=1;jettySize=auto;html=1;endArrow=none;endFill=0;sketch=0;sourcePerimeterSpacing=0;targetPerimeterSpacing=0;exitX=0.216;exitY=-0.002;exitDx=0;exitDy=0;exitPerimeter=0;" parent="1" source="w7m0Fat6c1bRsjCkgvyw-2" target="w7m0Fat6c1bRsjCkgvyw-14" edge="1">
          <mxGeometry relative="1" as="geometry">
            <mxPoint x="380" y="490" as="sourcePoint" />
          </mxGeometry>
        </mxCell>
        <mxCell id="w7m0Fat6c1bRsjCkgvyw-13" value="" style="rounded=0;orthogonalLoop=1;jettySize=auto;html=1;endArrow=halfCircle;endFill=0;entryX=0.5;entryY=0.5;endSize=6;strokeWidth=1;sketch=0;" parent="1" source="w7m0Fat6c1bRsjCkgvyw-15" target="w7m0Fat6c1bRsjCkgvyw-14" edge="1">
          <mxGeometry relative="1" as="geometry">
            <mxPoint x="460" y="405" as="sourcePoint" />
          </mxGeometry>
        </mxCell>
        <mxCell id="w7m0Fat6c1bRsjCkgvyw-14" value="Tweepy Access to Twitter API" style="ellipse;whiteSpace=wrap;html=1;align=center;aspect=fixed;resizable=0;points=[];outlineConnect=0;sketch=0;labelPosition=center;verticalLabelPosition=top;verticalAlign=bottom;" parent="1" vertex="1">
          <mxGeometry x="280" y="427.98" width="10" height="10" as="geometry" />
        </mxCell>
        <mxCell id="w7m0Fat6c1bRsjCkgvyw-15" value="Twitter Services" style="verticalAlign=top;align=left;spacingTop=8;spacingLeft=2;spacingRight=12;shape=cube;size=10;direction=south;fontStyle=4;html=1;" parent="1" vertex="1">
          <mxGeometry x="330" y="372.98" width="180" height="120" as="geometry" />
        </mxCell>
        <mxCell id="w7m0Fat6c1bRsjCkgvyw-22" value="" style="group" parent="1" vertex="1" connectable="0">
          <mxGeometry x="330" y="520" width="190" height="120" as="geometry" />
        </mxCell>
        <mxCell id="w7m0Fat6c1bRsjCkgvyw-1" value="MySQL Database Server&lt;br&gt;(Azure Cloud)" style="verticalAlign=top;align=left;spacingTop=8;spacingLeft=2;spacingRight=12;shape=cube;size=10;direction=south;fontStyle=4;html=1;" parent="w7m0Fat6c1bRsjCkgvyw-22" vertex="1">
          <mxGeometry width="190" height="120" as="geometry" />
        </mxCell>
        <mxCell id="w7m0Fat6c1bRsjCkgvyw-21" value="Database" style="shape=module;align=left;spacingLeft=20;align=center;verticalAlign=top;" parent="w7m0Fat6c1bRsjCkgvyw-22" vertex="1">
          <mxGeometry x="20" y="50" width="100" height="50" as="geometry" />
        </mxCell>
        <mxCell id="w7m0Fat6c1bRsjCkgvyw-28" value="" style="aspect=fixed;html=1;points=[];align=center;image;fontSize=12;image=img/lib/azure2/databases/SQL_Managed_Instance.svg;fontFamily=Helvetica;fontColor=default;strokeColor=none;fillColor=#00BEF2;" parent="w7m0Fat6c1bRsjCkgvyw-22" vertex="1">
          <mxGeometry x="130" y="70" width="40" height="40" as="geometry" />
        </mxCell>
        <mxCell id="w7m0Fat6c1bRsjCkgvyw-2" value="Client PC" style="verticalAlign=top;align=left;spacingTop=8;spacingLeft=2;spacingRight=12;shape=cube;size=10;direction=south;fontStyle=4;html=1;" parent="1" vertex="1">
          <mxGeometry x="30" y="360" width="210" height="340" as="geometry" />
        </mxCell>
        <mxCell id="w7m0Fat6c1bRsjCkgvyw-26" style="edgeStyle=orthogonalEdgeStyle;rounded=0;orthogonalLoop=1;jettySize=auto;html=1;endArrow=none;endFill=0;" parent="1" source="w7m0Fat6c1bRsjCkgvyw-4" target="w7m0Fat6c1bRsjCkgvyw-23" edge="1">
          <mxGeometry relative="1" as="geometry">
            <Array as="points">
              <mxPoint x="210" y="499.8035135135135" />
              <mxPoint x="210" y="642.0291891891891" />
            </Array>
          </mxGeometry>
        </mxCell>
        <mxCell id="w7m0Fat6c1bRsjCkgvyw-4" value="Donaldson-&lt;br&gt;Twitter-&lt;br&gt;Analysis-Tool" style="shape=module;align=center;spacingLeft=20;align=center;verticalAlign=top;fontFamily=Helvetica;fontSize=12;fontColor=default;strokeColor=default;fillColor=default;html=1;" parent="1" vertex="1">
          <mxGeometry x="60.5" y="474.3264864864865" width="119.5" height="50.95405405405406" as="geometry" />
        </mxCell>
        <mxCell id="w7m0Fat6c1bRsjCkgvyw-16" value="VADER&#xa;Analysis Tool" style="shape=module;align=left;spacingLeft=20;align=center;verticalAlign=top;" parent="1" vertex="1">
          <mxGeometry x="60.5" y="410.00216216216216" width="119.5" height="45.94594594594595" as="geometry" />
        </mxCell>
        <mxCell id="w7m0Fat6c1bRsjCkgvyw-17" value="Tweepy" style="shape=module;align=left;spacingLeft=20;align=center;verticalAlign=top;" parent="1" vertex="1">
          <mxGeometry x="60.5" y="547.84" width="119.5" height="45.94594594594595" as="geometry" />
        </mxCell>
        <mxCell id="w7m0Fat6c1bRsjCkgvyw-23" value="Python MySQL&#xa;Connector" style="shape=module;align=left;spacingLeft=20;align=center;verticalAlign=top;" parent="1" vertex="1">
          <mxGeometry x="60.5" y="616.7589189189189" width="119.5" height="50.54054054054054" as="geometry" />
        </mxCell>
        <mxCell id="w7m0Fat6c1bRsjCkgvyw-19" style="edgeStyle=orthogonalEdgeStyle;rounded=0;orthogonalLoop=1;jettySize=auto;html=1;endArrow=none;endFill=0;" parent="1" source="w7m0Fat6c1bRsjCkgvyw-16" target="w7m0Fat6c1bRsjCkgvyw-4" edge="1">
          <mxGeometry relative="1" as="geometry" />
        </mxCell>
        <mxCell id="w7m0Fat6c1bRsjCkgvyw-20" style="edgeStyle=orthogonalEdgeStyle;rounded=0;orthogonalLoop=1;jettySize=auto;html=1;endArrow=none;endFill=0;" parent="1" source="w7m0Fat6c1bRsjCkgvyw-17" target="w7m0Fat6c1bRsjCkgvyw-4" edge="1">
          <mxGeometry relative="1" as="geometry" />
        </mxCell>
        <mxCell id="w7m0Fat6c1bRsjCkgvyw-27" value="" style="dashed=0;outlineConnect=0;html=1;align=center;labelPosition=center;verticalLabelPosition=bottom;verticalAlign=top;shape=mxgraph.webicons.twitter;fillColor=#49EAF7;gradientColor=#137BD0" parent="1" vertex="1">
          <mxGeometry x="450" y="440" width="42.4" height="42.4" as="geometry" />
        </mxCell>
      </root>
    </mxGraphModel>
  </diagram>
  <diagram name="Copy of Page-1" id="ikoAZFQh8QbpFYCpPn3p">
    <mxGraphModel dx="981" dy="532" grid="1" gridSize="10" guides="1" tooltips="1" connect="1" arrows="1" fold="1" page="1" pageScale="1" pageWidth="850" pageHeight="3500" math="0" shadow="0">
      <root>
        <mxCell id="MEUXl7gFoKS9KNzlOped-0" />
        <mxCell id="MEUXl7gFoKS9KNzlOped-1" parent="MEUXl7gFoKS9KNzlOped-0" />
        <mxCell id="MEUXl7gFoKS9KNzlOped-2" value="" style="rounded=0;orthogonalLoop=1;jettySize=auto;html=1;endArrow=none;endFill=0;sketch=0;sourcePerimeterSpacing=0;targetPerimeterSpacing=0;exitX=0.648;exitY=-0.001;exitDx=0;exitDy=0;exitPerimeter=0;" edge="1" parent="MEUXl7gFoKS9KNzlOped-1" source="MEUXl7gFoKS9KNzlOped-13" target="MEUXl7gFoKS9KNzlOped-4">
          <mxGeometry relative="1" as="geometry">
            <mxPoint x="350" y="620" as="sourcePoint" />
          </mxGeometry>
        </mxCell>
        <mxCell id="MEUXl7gFoKS9KNzlOped-3" value="" style="rounded=0;orthogonalLoop=1;jettySize=auto;html=1;endArrow=halfCircle;endFill=0;entryX=0.5;entryY=0.5;endSize=6;strokeWidth=1;sketch=0;" edge="1" parent="MEUXl7gFoKS9KNzlOped-1" source="MEUXl7gFoKS9KNzlOped-10" target="MEUXl7gFoKS9KNzlOped-4">
          <mxGeometry relative="1" as="geometry">
            <mxPoint x="140" y="250" as="sourcePoint" />
          </mxGeometry>
        </mxCell>
        <mxCell id="MEUXl7gFoKS9KNzlOped-4" value="Python MySQL Connector" style="ellipse;whiteSpace=wrap;html=1;align=center;aspect=fixed;resizable=0;points=[];outlineConnect=0;sketch=0;labelPosition=center;verticalLabelPosition=top;verticalAlign=bottom;" vertex="1" parent="MEUXl7gFoKS9KNzlOped-1">
          <mxGeometry x="280" y="575" width="10" height="10" as="geometry" />
        </mxCell>
        <mxCell id="MEUXl7gFoKS9KNzlOped-5" value="" style="rounded=0;orthogonalLoop=1;jettySize=auto;html=1;endArrow=none;endFill=0;sketch=0;sourcePerimeterSpacing=0;targetPerimeterSpacing=0;exitX=0.216;exitY=-0.002;exitDx=0;exitDy=0;exitPerimeter=0;" edge="1" parent="MEUXl7gFoKS9KNzlOped-1" source="MEUXl7gFoKS9KNzlOped-13" target="MEUXl7gFoKS9KNzlOped-7">
          <mxGeometry relative="1" as="geometry">
            <mxPoint x="380" y="490" as="sourcePoint" />
          </mxGeometry>
        </mxCell>
        <mxCell id="MEUXl7gFoKS9KNzlOped-6" value="" style="rounded=0;orthogonalLoop=1;jettySize=auto;html=1;endArrow=halfCircle;endFill=0;entryX=0.5;entryY=0.5;endSize=6;strokeWidth=1;sketch=0;" edge="1" parent="MEUXl7gFoKS9KNzlOped-1" source="MEUXl7gFoKS9KNzlOped-8" target="MEUXl7gFoKS9KNzlOped-7">
          <mxGeometry relative="1" as="geometry">
            <mxPoint x="460" y="405" as="sourcePoint" />
          </mxGeometry>
        </mxCell>
        <mxCell id="MEUXl7gFoKS9KNzlOped-7" value="Tweepy Access to Twitter API" style="ellipse;whiteSpace=wrap;html=1;align=center;aspect=fixed;resizable=0;points=[];outlineConnect=0;sketch=0;labelPosition=center;verticalLabelPosition=top;verticalAlign=bottom;" vertex="1" parent="MEUXl7gFoKS9KNzlOped-1">
          <mxGeometry x="280" y="427.98" width="10" height="10" as="geometry" />
        </mxCell>
        <mxCell id="MEUXl7gFoKS9KNzlOped-8" value="Twitter Services" style="verticalAlign=top;align=left;spacingTop=8;spacingLeft=2;spacingRight=12;shape=cube;size=10;direction=south;fontStyle=4;html=1;" vertex="1" parent="MEUXl7gFoKS9KNzlOped-1">
          <mxGeometry x="330" y="372.98" width="180" height="120" as="geometry" />
        </mxCell>
        <mxCell id="MEUXl7gFoKS9KNzlOped-9" value="" style="group" vertex="1" connectable="0" parent="MEUXl7gFoKS9KNzlOped-1">
          <mxGeometry x="330" y="520" width="190" height="120" as="geometry" />
        </mxCell>
        <mxCell id="MEUXl7gFoKS9KNzlOped-10" value="MySQL Database Server&lt;br&gt;(Azure Cloud)" style="verticalAlign=top;align=left;spacingTop=8;spacingLeft=2;spacingRight=12;shape=cube;size=10;direction=south;fontStyle=4;html=1;" vertex="1" parent="MEUXl7gFoKS9KNzlOped-9">
          <mxGeometry width="190" height="120" as="geometry" />
        </mxCell>
        <mxCell id="MEUXl7gFoKS9KNzlOped-11" value="Database" style="shape=module;align=left;spacingLeft=20;align=center;verticalAlign=top;" vertex="1" parent="MEUXl7gFoKS9KNzlOped-9">
          <mxGeometry x="20" y="50" width="100" height="50" as="geometry" />
        </mxCell>
        <mxCell id="MEUXl7gFoKS9KNzlOped-12" value="" style="aspect=fixed;html=1;points=[];align=center;image;fontSize=12;image=img/lib/azure2/databases/SQL_Managed_Instance.svg;fontFamily=Helvetica;fontColor=default;strokeColor=none;fillColor=#00BEF2;" vertex="1" parent="MEUXl7gFoKS9KNzlOped-9">
          <mxGeometry x="130" y="70" width="40" height="40" as="geometry" />
        </mxCell>
        <mxCell id="MEUXl7gFoKS9KNzlOped-13" value="Client PC" style="verticalAlign=top;align=left;spacingTop=8;spacingLeft=2;spacingRight=12;shape=cube;size=10;direction=south;fontStyle=4;html=1;" vertex="1" parent="MEUXl7gFoKS9KNzlOped-1">
          <mxGeometry x="30" y="360" width="210" height="340" as="geometry" />
        </mxCell>
        <mxCell id="MEUXl7gFoKS9KNzlOped-14" style="edgeStyle=orthogonalEdgeStyle;rounded=0;orthogonalLoop=1;jettySize=auto;html=1;endArrow=none;endFill=0;" edge="1" parent="MEUXl7gFoKS9KNzlOped-1" source="MEUXl7gFoKS9KNzlOped-15" target="MEUXl7gFoKS9KNzlOped-18">
          <mxGeometry relative="1" as="geometry">
            <Array as="points">
              <mxPoint x="210" y="499.8035135135135" />
              <mxPoint x="210" y="642.0291891891891" />
            </Array>
          </mxGeometry>
        </mxCell>
        <mxCell id="MEUXl7gFoKS9KNzlOped-15" value="Our Code" style="shape=module;align=center;spacingLeft=20;align=center;verticalAlign=top;fontFamily=Helvetica;fontSize=12;fontColor=default;strokeColor=default;fillColor=default;html=1;" vertex="1" parent="MEUXl7gFoKS9KNzlOped-1">
          <mxGeometry x="60.5" y="474.3264864864865" width="119.5" height="50.95405405405406" as="geometry" />
        </mxCell>
        <mxCell id="MEUXl7gFoKS9KNzlOped-16" value="VADER&#xa;Analysis Tool" style="shape=module;align=left;spacingLeft=20;align=center;verticalAlign=top;" vertex="1" parent="MEUXl7gFoKS9KNzlOped-1">
          <mxGeometry x="60.5" y="410.00216216216216" width="119.5" height="45.94594594594595" as="geometry" />
        </mxCell>
        <mxCell id="MEUXl7gFoKS9KNzlOped-17" value="Tweepy" style="shape=module;align=left;spacingLeft=20;align=center;verticalAlign=top;" vertex="1" parent="MEUXl7gFoKS9KNzlOped-1">
          <mxGeometry x="60.5" y="547.84" width="119.5" height="45.94594594594595" as="geometry" />
        </mxCell>
        <mxCell id="MEUXl7gFoKS9KNzlOped-18" value="Python MySQL&#xa;Connector" style="shape=module;align=left;spacingLeft=20;align=center;verticalAlign=top;" vertex="1" parent="MEUXl7gFoKS9KNzlOped-1">
          <mxGeometry x="60.5" y="616.7589189189189" width="119.5" height="50.54054054054054" as="geometry" />
        </mxCell>
        <mxCell id="MEUXl7gFoKS9KNzlOped-19" style="edgeStyle=orthogonalEdgeStyle;rounded=0;orthogonalLoop=1;jettySize=auto;html=1;endArrow=none;endFill=0;" edge="1" parent="MEUXl7gFoKS9KNzlOped-1" source="MEUXl7gFoKS9KNzlOped-16" target="MEUXl7gFoKS9KNzlOped-15">
          <mxGeometry relative="1" as="geometry" />
        </mxCell>
        <mxCell id="MEUXl7gFoKS9KNzlOped-20" style="edgeStyle=orthogonalEdgeStyle;rounded=0;orthogonalLoop=1;jettySize=auto;html=1;endArrow=none;endFill=0;" edge="1" parent="MEUXl7gFoKS9KNzlOped-1" source="MEUXl7gFoKS9KNzlOped-17" target="MEUXl7gFoKS9KNzlOped-15">
          <mxGeometry relative="1" as="geometry" />
        </mxCell>
        <mxCell id="MEUXl7gFoKS9KNzlOped-21" value="" style="dashed=0;outlineConnect=0;html=1;align=center;labelPosition=center;verticalLabelPosition=bottom;verticalAlign=top;shape=mxgraph.webicons.twitter;fillColor=#49EAF7;gradientColor=#137BD0" vertex="1" parent="MEUXl7gFoKS9KNzlOped-1">
          <mxGeometry x="450" y="440" width="42.4" height="42.4" as="geometry" />
        </mxCell>
        <mxCell id="MEUXl7gFoKS9KNzlOped-22" value="" style="shape=umlDestroy;whiteSpace=wrap;html=1;strokeWidth=1;labelBackgroundColor=#007FFF;fontColor=#007FFF;strokeColor=#007FFF;rotation=0;" vertex="1" parent="MEUXl7gFoKS9KNzlOped-1">
          <mxGeometry x="480" y="453.95" width="2" height="2" as="geometry" />
        </mxCell>
      </root>
    </mxGraphModel>
  </diagram>
</mxfile>
